<?xml version="1.0" standalone="no"?>
<!DOCTYPE svg PUBLIC "-//W3C//DTD SVG 20010904//EN"
 "http://www.w3.org/TR/2001/REC-SVG-20010904/DTD/svg10.dtd">
<svg version="1.0" xmlns="http://www.w3.org/2000/svg"
 width="798.000000pt" height="271.000000pt" viewBox="0 0 798.000000 271.000000"
 preserveAspectRatio="xMidYMid meet">

<g transform="translate(0.000000,271.000000) scale(0.100000,-0.100000)"
fill="#000000" stroke="none">
<path d="M1646 2092 c-4 -3 -6 -29 -6 -59 l0 -53 -84 0 c-66 0 -85 3 -90 15
-3 9 -23 23 -43 32 -32 13 -67 14 -223 9 -113 -4 -198 -3 -218 3 -31 9 -32 9
-26 -17 13 -65 40 -118 95 -193 33 -44 57 -84 54 -88 -2 -5 -10 -53 -16 -107
-6 -55 -16 -105 -22 -113 -18 -22 -118 -8 -159 22 -94 70 -244 59 -264 -18
-14 -55 25 -192 70 -245 7 -8 20 -44 30 -78 37 -140 108 -231 224 -285 61 -29
78 -32 184 -35 l117 -4 32 -97 c40 -121 52 -138 101 -153 60 -18 197 2 282 41
155 70 295 190 345 295 28 58 30 71 41 282 7 122 9 235 5 253 -6 28 -1 37 43
86 56 61 110 176 119 256 5 42 2 55 -21 89 -26 39 -90 80 -148 94 -15 3 -94
15 -176 26 -81 11 -169 26 -195 34 -25 7 -48 11 -51 8z m-6 -192 c47 -9 62
-19 168 -119 138 -129 180 -192 191 -283 5 -35 3 -155 -4 -268 -10 -181 -14
-210 -34 -249 -69 -133 -311 -279 -471 -284 -80 -2 -93 6 -110 71 -6 26 -25
82 -42 125 l-31 77 -36 -7 c-20 -5 -76 -8 -126 -7 -107 0 -159 20 -231 86 -48
44 -94 125 -94 167 0 13 13 38 29 56 16 19 39 60 50 92 12 32 29 64 38 71 9 6
43 12 75 12 66 0 108 17 126 52 7 12 16 65 22 117 10 99 20 120 72 147 15 8
36 14 48 14 11 0 20 7 20 15 0 18 -41 20 -73 4 -18 -10 -17 -6 7 19 68 73 268
118 406 92z m-882 -342 c16 -16 15 -23 -4 -42 -19 -20 -29 -20 -48 0 -12 12
-13 20 -6 35 12 21 40 25 58 7z"/>
<path d="M1548 1774 c-16 -15 -7 -24 25 -24 41 0 93 -32 115 -70 15 -26 42
-42 42 -25 0 19 -35 68 -65 90 -34 27 -103 44 -117 29z"/>
<path d="M1531 1629 c-28 -26 -41 -60 -41 -105 0 -85 64 -125 109 -68 24 31
26 44 7 44 -42 0 -43 65 0 76 29 8 30 14 3 48 -25 31 -48 33 -78 5z"/>
<path d="M1212 1623 c-17 -7 -42 -57 -42 -85 0 -31 27 -68 49 -68 10 0 25 8
34 18 15 16 15 19 -3 30 -11 7 -20 21 -20 31 0 20 25 35 41 25 13 -8 11 30 -3
44 -12 12 -33 14 -56 5z"/>
<path d="M990 1335 c-18 -22 -8 -50 19 -50 28 0 47 25 38 49 -8 20 -40 21 -57
1z"/>
<path d="M1074 1275 c-4 -9 -2 -21 4 -27 15 -15 44 -1 40 19 -4 23 -36 29 -44
8z"/>
<path d="M997 1254 c-4 -4 -7 -16 -7 -26 0 -14 6 -19 23 -16 14 2 22 10 22 23
0 20 -25 32 -38 19z"/>
<path d="M1557 1205 c-34 -43 -90 -73 -176 -94 -70 -17 -93 -39 -72 -65 39
-47 252 31 310 113 50 70 -9 114 -62 46z"/>
<path d="M4125 1815 c-139 -53 -169 -221 -55 -304 23 -16 78 -42 123 -57 45
-15 94 -33 108 -40 51 -25 47 -66 -6 -84 -46 -15 -106 2 -168 47 l-48 35 -49
-33 c-27 -19 -50 -40 -50 -48 0 -30 52 -81 117 -113 60 -29 77 -33 148 -33 69
0 88 4 140 30 49 24 64 38 83 75 25 51 29 118 8 158 -29 55 -79 87 -200 128
-86 30 -116 49 -116 74 0 56 110 51 206 -10 19 -11 26 -9 68 19 25 18 46 38
46 46 0 20 -56 73 -104 97 -54 28 -192 35 -251 13z"/>
<path d="M2560 1597 c0 -237 4 -267 48 -326 56 -75 203 -105 302 -60 60 27 79
45 106 104 23 48 24 60 24 278 l0 228 -67 -3 -68 -3 -5 -215 c-3 -147 -9 -222
-18 -237 -18 -33 -82 -47 -125 -29 -19 8 -38 20 -43 27 -5 8 -11 113 -14 234
l-5 220 -67 3 -68 3 0 -224z"/>
<path d="M3147 1813 c-4 -3 -7 -142 -7 -309 0 -266 2 -303 16 -308 22 -9 97
-7 111 2 9 6 13 59 15 187 l3 179 113 -181 c62 -100 119 -184 128 -187 20 -8
88 -8 108 0 14 5 16 43 16 316 l0 309 -67 -3 -68 -3 -5 -180 -5 -180 -114 183
-113 182 -62 0 c-35 0 -66 -3 -69 -7z"/>
<path d="M3757 1813 c-4 -3 -7 -140 -7 -303 0 -245 3 -300 14 -309 8 -7 37
-11 68 -9 l53 3 3 313 2 312 -63 0 c-35 0 -67 -3 -70 -7z"/>
<path d="M4576 1804 c-11 -28 -7 -574 4 -595 10 -18 23 -19 204 -19 220 0 219
0 214 77 l-3 48 -140 5 -140 5 -3 58 -3 57 124 0 c144 0 150 3 145 77 l-3 48
-132 3 -133 3 0 59 0 60 140 0 c138 0 140 0 146 23 3 13 4 41 2 63 l-3 39
-206 3 c-182 2 -207 0 -213 -14z"/>
<path d="M5096 1805 c-3 -9 -6 -146 -6 -305 0 -236 3 -290 14 -299 8 -7 37
-11 68 -9 l53 3 5 185 5 185 26 -40 c14 -22 65 -103 114 -180 48 -77 92 -143
99 -147 13 -9 88 -10 110 -2 14 5 16 43 16 315 l0 309 -64 0 c-46 0 -65 -4
-69 -14 -3 -8 -5 -89 -4 -180 1 -91 0 -166 -3 -166 -3 0 -55 80 -116 178
l-111 177 -65 3 c-53 2 -67 0 -72 -13z"/>
<path d="M5712 1508 l3 -313 150 1 c180 1 228 16 298 94 107 119 103 334 -8
445 -68 68 -127 85 -301 85 l-144 0 2 -312z m304 156 c55 -26 78 -68 82 -149
3 -60 0 -75 -20 -104 -42 -62 -69 -75 -156 -76 l-77 0 -3 173 -2 172 71 0 c45
0 84 -6 105 -16z"/>
<path d="M6337 1813 c-4 -3 -7 -143 -7 -309 l0 -304 23 -5 c12 -3 105 -4 207
-3 l185 3 3 63 3 62 -141 0 -140 0 0 60 0 59 128 3 127 3 3 63 3 62 -131 0
-130 0 0 60 0 59 138 3 137 3 3 63 3 62 -204 0 c-112 0 -207 -3 -210 -7z"/>
<path d="M6857 1813 c-4 -3 -7 -142 -7 -309 0 -336 -5 -314 70 -314 69 0 70 1
70 111 l0 99 39 0 c39 0 40 -1 92 -87 74 -126 71 -123 146 -123 44 0 65 4 69
14 3 7 -20 54 -50 104 -31 50 -56 95 -56 99 0 4 16 21 36 37 89 71 100 230 21
314 -50 54 -83 62 -260 62 -90 0 -167 -3 -170 -7z m323 -153 c11 -11 20 -33
20 -50 0 -54 -28 -70 -125 -70 l-85 0 0 70 0 70 85 0 c72 0 88 -3 105 -20z"/>
<path d="M4597 984 c-14 -15 -6 -34 14 -34 14 0 19 5 17 17 -3 18 -20 27 -31
17z"/>
<path d="M2589 952 c-27 -24 -33 -37 -37 -84 -6 -70 16 -114 66 -135 29 -12
43 -13 74 -4 55 17 94 81 48 81 -11 0 -20 -4 -20 -9 0 -19 -32 -41 -61 -41
-45 0 -69 31 -69 90 0 87 63 128 116 75 26 -26 54 -33 54 -14 0 6 -13 24 -29
40 -41 40 -98 41 -142 1z"/>
<path d="M4680 855 c0 -104 2 -125 15 -125 13 0 15 21 15 125 0 104 -2 125
-15 125 -13 0 -15 -21 -15 -125z"/>
<path d="M2845 909 c-34 -19 -45 -41 -45 -87 0 -55 11 -76 49 -92 35 -14 95 1
105 26 8 21 -21 29 -39 10 -22 -21 -41 -20 -65 4 -33 33 -24 40 45 40 l65 0 0
29 c0 56 -67 97 -115 70z m70 -39 c24 -27 17 -32 -41 -28 l-49 3 23 23 c27 27
44 28 67 2z"/>
<path d="M3007 913 c-4 -3 -7 -62 -7 -130 0 -116 1 -123 20 -123 17 0 20 7 20
46 0 45 0 45 22 30 32 -22 55 -20 83 9 20 19 25 34 25 75 0 41 -5 56 -25 75
-27 28 -66 32 -86 9 -11 -14 -13 -14 -21 0 -10 17 -20 20 -31 9z m103 -33 c40
-21 33 -112 -10 -123 -50 -13 -81 72 -40 113 23 23 25 23 50 10z"/>
<path d="M3215 908 c-3 -8 -5 -50 -3 -94 l3 -79 61 -3 c86 -4 120 32 75 77
-17 17 -18 21 -5 32 18 15 18 43 0 58 -8 7 -40 15 -70 18 -44 5 -57 3 -61 -9z
m105 -48 c0 -16 -7 -20 -35 -20 -28 0 -35 4 -35 20 0 16 7 20 35 20 28 0 35
-4 35 -20z m5 -75 c0 -16 -8 -21 -37 -23 -35 -3 -38 -1 -38 23 0 24 3 26 38
23 29 -2 37 -7 37 -23z"/>
<path d="M3410 825 c0 -87 2 -95 19 -95 13 0 32 21 58 63 l38 62 3 -62 c2 -47
7 -63 17 -63 12 0 15 19 15 96 0 84 -2 95 -16 90 -9 -3 -17 -6 -19 -6 -2 0
-21 -28 -42 -62 l-38 -63 -3 68 c-2 51 -6 67 -17 67 -12 0 -15 -19 -15 -95z"/>
<path d="M3650 907 c-58 -29 -57 -142 2 -173 46 -24 108 -3 108 37 0 25 -15
24 -40 -1 -11 -11 -24 -20 -30 -20 -21 0 -50 41 -50 70 0 29 29 70 50 70 6 0
19 -9 31 -21 11 -11 27 -18 35 -15 32 12 -25 66 -69 66 -7 0 -23 -6 -37 -13z"/>
<path d="M3920 892 c-42 -42 -42 -101 -1 -143 16 -16 39 -29 51 -29 30 0 80
28 80 45 0 19 -15 19 -46 -1 -31 -21 -74 -6 -74 26 0 18 6 20 66 20 l66 0 -7
33 c-9 41 -32 65 -72 73 -27 5 -37 1 -63 -24z m84 -18 c26 -25 19 -34 -29 -34
-48 0 -62 19 -27 39 24 15 38 13 56 -5z"/>
<path d="M4100 825 c0 -78 3 -95 15 -95 12 0 15 13 15 59 0 65 22 107 52 96
20 -8 28 -35 28 -102 0 -40 4 -53 15 -53 12 0 15 14 15 70 0 60 3 71 21 80 35
19 49 -3 49 -81 0 -62 2 -69 20 -69 18 0 20 7 20 75 0 62 -4 79 -20 95 -23 23
-49 25 -75 6 -16 -11 -22 -11 -45 2 -25 15 -30 14 -54 -1 -22 -15 -26 -15 -26
-2 0 8 -7 15 -15 15 -12 0 -15 -17 -15 -95z"/>
<path d="M4434 910 c-12 -5 -25 -14 -29 -20 -13 -21 16 -28 46 -11 26 15 30
15 45 -1 22 -22 12 -34 -35 -42 -22 -3 -47 -13 -56 -22 -24 -24 -15 -66 18
-84 25 -14 30 -13 57 2 17 9 30 13 30 8 0 -6 7 -10 15 -10 20 0 22 152 2 169
-20 16 -69 22 -93 11z m76 -113 c0 -21 -36 -49 -57 -45 -22 4 -30 37 -11 49
21 14 68 11 68 -4z"/>
<path d="M4597 914 c-4 -4 -7 -47 -7 -96 0 -82 1 -88 20 -88 20 0 21 5 18 92
-3 84 -12 111 -31 92z"/>
<path d="M4927 913 c-4 -3 -7 -62 -7 -130 0 -116 1 -123 20 -123 17 0 20 7 20
46 0 41 1 44 16 30 23 -24 52 -19 85 13 48 49 36 137 -23 162 -21 9 -35 9 -53
1 -15 -7 -26 -8 -30 -2 -7 12 -19 13 -28 3z m101 -39 c19 -13 22 -24 20 -56
-4 -53 -33 -76 -66 -52 -27 18 -31 84 -6 108 19 20 24 20 52 0z"/>
<path d="M5158 904 c-16 -8 -28 -19 -28 -23 0 -17 24 -18 51 -2 23 13 30 13
43 2 28 -23 18 -38 -29 -45 -73 -11 -97 -54 -54 -97 16 -16 28 -20 52 -15 17
4 35 12 39 19 6 9 8 9 8 0 0 -7 9 -13 20 -13 18 0 20 7 20 70 0 62 -3 74 -25
95 -27 28 -57 31 -97 9z m78 -118 c-10 -42 -76 -46 -76 -5 0 12 9 21 28 25 15
3 32 7 37 9 16 4 18 -2 11 -29z"/>
<path d="M5365 908 c-33 -19 -44 -41 -44 -88 0 -48 11 -70 46 -88 34 -18 62
-14 88 13 44 44 26 61 -24 24 -35 -26 -66 -14 -76 29 -14 66 36 113 79 73 44
-41 64 -18 21 24 -26 27 -58 31 -90 13z"/>
<path d="M5539 891 c-23 -23 -29 -38 -29 -71 0 -33 6 -48 29 -71 17 -16 40
-29 54 -29 28 0 77 35 77 56 0 18 -29 18 -36 0 -9 -23 -35 -28 -60 -11 -49 32
-19 137 34 121 11 -4 23 -13 26 -21 7 -18 36 -20 36 -2 0 18 -12 32 -37 46
-35 18 -63 13 -94 -18z"/>
<path d="M5717 914 c-4 -4 -7 -47 -7 -96 l0 -88 59 0 c68 0 91 15 91 59 0 37
-28 61 -73 61 -33 0 -36 3 -39 32 -3 31 -17 45 -31 32z m103 -109 c20 -24 4
-45 -35 -45 -32 0 -35 2 -35 30 0 26 3 30 29 30 16 0 34 -7 41 -15z"/>
<path d="M5890 826 c0 -90 1 -96 20 -96 20 0 21 5 18 92 -3 79 -6 93 -20 96
-16 3 -18 -6 -18 -92z"/>
<path d="M6006 908 c-3 -7 -7 -40 -10 -73 -3 -37 -11 -64 -21 -71 -21 -16 -19
-34 4 -34 31 0 51 38 51 97 l0 53 33 0 32 0 -2 -75 c-2 -68 0 -75 18 -75 17 0
19 8 19 95 l0 95 -60 0 c-40 0 -62 -4 -64 -12z"/>
<path d="M6199 891 c-36 -36 -40 -95 -9 -134 27 -33 52 -41 94 -27 38 12 56
44 56 98 -1 41 -13 63 -47 80 -35 19 -63 14 -94 -17z m81 -11 c21 -11 33 -51
24 -85 -16 -65 -94 -47 -94 22 0 34 22 73 42 73 5 0 18 -4 28 -10z"/>
<path d="M6387 913 c-4 -3 -7 -46 -7 -95 0 -81 2 -88 20 -88 16 0 20 7 20 35
0 46 20 46 51 0 16 -23 32 -35 47 -35 23 0 23 1 -11 48 l-36 48 34 39 c38 45
42 55 19 55 -8 0 -32 -18 -51 -40 -20 -22 -40 -40 -45 -40 -4 0 -8 18 -8 40 0
38 -14 52 -33 33z"/>
<path d="M4760 835 c0 -12 13 -15 55 -15 42 0 55 3 55 15 0 12 -13 15 -55 15
-42 0 -55 -3 -55 -15z"/>
</g>
</svg>
