<?xml version="1.0" standalone="no"?>
<!DOCTYPE svg PUBLIC "-//W3C//DTD SVG 20010904//EN"
 "http://www.w3.org/TR/2001/REC-SVG-20010904/DTD/svg10.dtd">
<svg version="1.0" xmlns="http://www.w3.org/2000/svg"
 width="920.000000pt" height="512.000000pt" viewBox="0 0 920.000000 512.000000"
 preserveAspectRatio="xMidYMid meet">

<g transform="translate(0.000000,512.000000) scale(0.100000,-0.100000)"
fill="#000000" stroke="none">
<path d="M6405 5113 c-11 -3 -213 -50 -450 -105 -236 -54 -650 -150 -920 -213
-269 -63 -715 -166 -990 -230 -1443 -335 -1658 -386 -1685 -400 -37 -19 -76
-78 -85 -125 -4 -25 21 -162 89 -479 l96 -445 0 -1485 c0 -1421 1 -1488 19
-1526 22 -48 44 -69 94 -90 32 -13 268 -15 2124 -15 2030 0 2089 1 2130 19 26
12 52 35 70 62 l28 43 3 1509 c2 1461 2 1510 -17 1551 -10 24 -36 56 -57 72
l-37 29 -1391 3 -1391 3 510 120 c281 65 881 205 1335 310 584 136 837 198
867 215 47 27 83 90 83 145 0 31 -187 853 -210 925 -26 79 -125 128 -215 107z
m-21 -653 c30 -129 52 -238 48 -241 -8 -7 -579 -139 -601 -139 -11 0 -632 382
-628 387 1 1 110 27 242 57 132 31 382 90 555 130 280 66 316 72 322 57 5 -9
32 -122 62 -251z m-1363 -302 c169 -106 306 -194 304 -196 -2 -3 -212 -53
-466 -112 l-463 -108 -314 197 -314 196 73 17 c41 10 245 58 454 107 209 49
388 89 399 90 10 1 157 -85 327 -191z m-1431 -333 c176 -109 307 -197 299
-199 -8 -3 -72 -19 -144 -35 -71 -17 -316 -73 -544 -126 -227 -53 -415 -94
-417 -92 -2 2 -30 117 -62 255 l-59 251 116 27 c64 14 197 46 296 69 99 24
185 44 191 44 7 1 152 -87 324 -194z m120 -1150 l-265 -265 -312 0 -313 0 0
265 0 265 577 0 578 0 -265 -265z m1470 0 l-265 -265 -485 0 -485 0 265 265
265 265 485 0 485 0 -265 -265z m1390 0 l0 -265 -577 0 -578 0 265 265 265
265 312 0 313 0 0 -265z m0 -1467 l0 -848 -1875 0 -1875 0 0 848 0 847 1875 0
1875 0 0 -847z"/>
</g>
</svg>
