<?xml version="1.0" standalone="no"?>
<!DOCTYPE svg PUBLIC "-//W3C//DTD SVG 20010904//EN"
 "http://www.w3.org/TR/2001/REC-SVG-20010904/DTD/svg10.dtd">
<svg version="1.0" xmlns="http://www.w3.org/2000/svg"
 width="900.000000pt" height="600.000000pt" viewBox="0 0 900.000000 600.000000"
 preserveAspectRatio="xMidYMid meet">

<g transform="translate(0.000000,600.000000) scale(0.100000,-0.100000)"
fill="#000000" stroke="none">
<path d="M4273 5499 c-217 -6 -234 -7 -279 -30 -76 -38 -84 -59 -124 -338
l-35 -243 -95 -35 c-94 -34 -261 -111 -332 -154 l-37 -22 -200 132 c-114 76
-215 136 -237 142 -28 6 -54 4 -90 -6 -47 -14 -66 -29 -217 -187 -204 -214
-217 -233 -217 -307 0 -68 -2 -65 172 -293 l135 -177 -39 -78 c-46 -95 -92
-220 -122 -332 l-22 -84 -170 -33 c-302 -60 -312 -62 -355 -101 -23 -21 -42
-50 -48 -72 -13 -51 2 -537 18 -576 15 -37 47 -72 82 -91 15 -7 127 -27 250
-44 123 -17 233 -32 244 -35 15 -3 26 -23 44 -77 29 -92 89 -225 145 -325 l44
-77 -123 -180 c-67 -100 -130 -195 -139 -213 -20 -40 -21 -115 -1 -157 15 -30
357 -359 399 -383 35 -20 93 -25 132 -13 20 7 122 77 227 156 104 79 193 144
197 144 4 0 54 -22 111 -49 102 -48 258 -102 332 -116 26 -5 39 -13 42 -29 3
-11 25 -121 49 -243 48 -248 59 -272 134 -305 42 -19 59 -20 306 -13 268 7
305 13 349 53 37 33 48 75 77 285 16 117 32 226 35 243 5 30 11 34 98 63 93
33 337 148 337 160 0 3 -105 111 -233 239 l-233 233 -105 -35 c-330 -111 -706
-78 -999 86 -323 181 -548 490 -627 858 -25 117 -24 362 1 480 95 442 410 802
822 939 150 50 235 63 399 64 271 1 476 -60 705 -211 262 -174 458 -468 527
-792 27 -131 25 -373 -5 -509 l-24 -104 242 -240 c132 -132 242 -238 244 -236
25 28 112 250 141 361 14 52 22 68 39 71 11 3 119 24 239 47 243 47 268 58
305 130 23 44 23 48 17 290 -4 135 -11 262 -16 282 -11 43 -50 93 -88 112 -14
8 -134 29 -267 47 l-240 33 -33 94 c-32 94 -105 254 -156 343 l-27 46 136 204
c202 304 203 294 -65 545 -99 93 -195 177 -212 187 -32 17 -92 22 -134 11 -13
-4 -111 -72 -218 -153 l-195 -146 -98 47 c-88 43 -256 103 -357 128 l-40 9
-39 203 c-50 263 -59 294 -87 324 -56 60 -72 62 -396 53z"/>
<path d="M4410 3773 c-114 -14 -270 -69 -270 -95 0 -7 82 -67 183 -133 217
-143 232 -161 232 -285 0 -65 -5 -85 -33 -142 -39 -79 -119 -171 -173 -198
-53 -27 -110 -34 -155 -20 -22 7 -120 64 -218 127 -99 63 -185 112 -192 109
-52 -20 -5 -279 77 -424 44 -77 169 -200 245 -240 124 -65 245 -78 387 -41 47
12 96 18 115 15 92 -14 97 -19 1057 -977 1026 -1024 968 -973 1097 -972 159 1
281 122 282 283 2 135 65 64 -970 1100 -723 725 -938 945 -953 980 -25 54 -26
88 -6 200 29 162 15 276 -47 392 -78 146 -237 263 -412 303 -70 15 -194 25
-246 18z m2420 -2852 c105 -55 109 -208 8 -272 -26 -15 -46 -19 -88 -17 -65 5
-99 26 -131 81 -72 129 79 279 211 208z"/>
</g>
</svg>
